PathFileType	4	(X/Y/Z)	./resultDataOpenSim/trcMotMarkerGrf/sub06/qtm-01-07.trc
DataRate	CameraRate	NumFrames	NumMarkers	Units	OrigDataRate	OrigDataStartFrame	OrigNumFrames
250.000000	250.000000	7	24	m	250.000000	123	489
Frame#	Time	L.Toe.Tip			R.Toe.Tip			L.Ankle.Lat			R.Ankle.Lat			L.Ankle.Med			R.Ankle.Med			L.Heel			R.Heel			L.Knee.Lat			R.Knee.Lat			L.Knee.Med			R.Knee.Med			L.Thigh.Upper			R.Thigh.Upper			L.ASIS			R.ASIS			V.Sacral			L.Acromium			R.Acromium			C7			L.Elbow			R.Elbow			L.Wrist.Lat			R.Wrist.Lat
		X1	Y1	Z1	X2	Y2	Z2	X3	Y3	Z3	X4	Y4	Z4	X5	Y5	Z5	X6	Y6	Z6	X7	Y7	Z7	X8	Y8	Z8	X9	Y9	Z9	X10	Y10	Z10	X11	Y11	Z11	X12	Y12	Z12	X13	Y13	Z13	X14	Y14	Z14	X15	Y15	Z15	X16	Y16	Z16	X17	Y17	Z17	X18	Y18	Z18	X19	Y19	Z19	X20	Y20	Z20	X21	Y21	Z21	X22	Y22	Z22	X23	Y23	Z23	X24	Y24	Z24

123	0.488	-0.296839	0.075273628	-0.11133736	-0.76000474	0.034976505	0.0668449	-0.42426303	0.088710177	-0.1226842	-0.89250224	0.071631762	0.074652164	-0.41728697	0.10516094	-0.037816271	-0.86257392	0.08957993	-0.0087818899	-0.48494837	0.046218527	-0.06864754	-0.94329232	0.053834743	0.0058318418	-0.43096346	0.46736142	-0.1250874	-0.75593955	0.43431286	0.12135612	-0.44067442	0.45750919	-0.003286332	-0.77763597	0.4361614	-0.010641951	-0.62076331	0.81237641	-0.15598609	-0.6778176	0.78984779	0.18801925	-0.55881001	0.85232451	-0.098236942	-0.57254421	0.84074971	0.14808038	-0.75180083	0.92802625	0.025754313	-0.63259919	1.3326458	-0.1628667	-0.61132214	1.3219488	0.19703423	-0.6981472	1.3631625	0.020746421	-0.73464215	1.0326474	-0.21132503	-0.63117162	1.0054528	0.28830645	-0.62037377	0.81838094	-0.25330206	-0.39742836	0.91198106	0.26586016
124	0.492	-0.27728119	0.07913775	-0.11010648	-0.76000264	0.034886979	0.066817867	-0.40497956	0.088569115	-0.12242715	-0.89223635	0.072203846	0.074675686	-0.39926214	0.10507149	-0.037673837	-0.86215238	0.089995977	-0.0087668978	-0.46493295	0.044032242	-0.068762208	-0.94313379	0.054738632	0.0059252125	-0.42387503	0.46603698	-0.12424804	-0.7528792	0.43404091	0.12143683	-0.43374022	0.45595776	-0.0021831893	-0.77442869	0.43579229	-0.010653478	-0.61395635	0.81064257	-0.15613332	-0.67237185	0.78889087	0.18808737	-0.55189722	0.85044729	-0.098354086	-0.56613014	0.83925281	0.14840638	-0.74572847	0.92684337	0.026048248	-0.62633796	1.3308913	-0.16298567	-0.60492955	1.3203852	0.19707016	-0.6917979	1.3617852	0.020671959	-0.72903767	1.0311939	-0.21118737	-0.62317227	1.0037918	0.28867471	-0.61584402	0.81656936	-0.25371594	-0.38878902	0.91270887	0.26496636
125	0.496	-0.25809685	0.083278321	-0.10889122	-0.76000441	0.034782003	0.066781797	-0.38594089	0.088781438	-0.12221682	-0.89194003	0.072801017	0.074733167	-0.38146116	0.10530054	-0.037558522	-0.8617424	0.090434366	-0.0087640975	-0.44533811	0.04239761	-0.068583454	-0.94297778	0.05568563	0.0060762858	-0.41680387	0.46459731	-0.12335013	-0.74983579	0.43370411	0.12151321	-0.42693533	0.45426337	-0.0010567544	-0.77112848	0.43537685	-0.010664045	-0.60688304	0.80885671	-0.15626817	-0.66688451	0.78796824	0.18819108	-0.54501508	0.84853093	-0.098460234	-0.55968183	0.83775406	0.14868001	-0.73958236	0.92561783	0.026254323	-0.62006739	1.329119	-0.16311212	-0.59858193	1.3187675	0.19708157	-0.68543878	1.3603643	0.020586178	-0.72334574	1.0297029	-0.2110224	-0.61509665	1.0021157	0.28898537	-0.61124517	0.81472528	-0.25412125	-0.38019817	0.91334976	0.26406187
126	0.5	-0.23936733	0.087640918	-0.10771386	-0.75999403	0.034700491	0.06675031	-0.36725489	0.089322012	-0.12205625	-0.89159865	0.073422974	0.074832923	-0.36393639	0.10583523	-0.037454343	-0.86132963	0.090892842	-0.0087394196	-0.42606141	0.041201516	-0.068356837	-0.94281957	0.056672553	0.0062710455	-0.40972572	0.46307464	-0.12238756	-0.74672964	0.43334659	0.12158998	-0.42024738	0.45245885	6.7262914e-05	-0.76774651	0.43492858	-0.010664728	-0.59955998	0.807014	-0.15638728	-0.66136836	0.7870602	0.18830688	-0.53813155	0.84657789	-0.098556288	-0.55334411	0.83621132	0.14886982	-0.73337398	0.92435431	0.026337927	-0.61378614	1.3273356	-0.16324664	-0.59225452	1.3171132	0.19707616	-0.67907303	1.3589029	0.020501536	-0.71757638	1.0281823	-0.21084081	-0.60699285	1.00043	0.28927915	-0.60657965	0.81285648	-0.25453071	-0.37159678	0.91390278	0.26310412
127	0.504	-0.22116706	0.092135848	-0.10656754	-0.75996302	0.034655249	0.066729813	-0.34904849	0.090160122	-0.1219342	-0.89120557	0.074075253	0.074986502	-0.34671661	0.1066634	-0.037325134	-0.86089874	0.091367918	-0.0086494703	-0.40693749	0.040236578	-0.068551811	-0.94265741	0.057706562	0.0065148924	-0.40260317	0.46149567	-0.12136451	-0.7435399	0.43296957	0.12166498	-0.41360215	0.45057957	0.0011944741	-0.76427991	0.43446407	-0.010653518	-0.59217346	0.80510844	-0.15652531	-0.65583571	0.78614781	0.18841103	-0.53120647	0.84459445	-0.098649775	-0.54710329	0.83463668	0.14896188	-0.72711028	0.92305473	0.026262575	-0.60748221	1.3255437	-0.16339448	-0.5858884	1.3154444	0.19706483	-0.67269703	1.3574115	0.020421779	-0.71173896	1.026633	-0.21065189	-0.59893445	0.99872666	0.28957839	-0.60182312	0.81098291	-0.2549499	-0.36294478	0.91437416	0.26210305
128	0.508	-0.20354523	0.096676733	-0.10544463	-0.75991591	0.034631002	0.06671778	-0.33140039	0.091253017	-0.12181884	-0.89076944	0.074777759	0.075202307	-0.32988337	0.1077305	-0.037169964	-0.86045086	0.091857966	-0.0084905727	-0.38796368	0.039401101	-0.069336756	-0.94248698	0.058812215	0.0068222275	-0.39539143	0.45987341	-0.12029668	-0.74026262	0.43255367	0.12174346	-0.40691462	0.4486564	0.002352641	-0.76071938	0.43399588	-0.010633668	-0.58485363	0.80313865	-0.15669449	-0.65029955	0.78521177	0.18847768	-0.52422741	0.84258818	-0.09875018	-0.54088253	0.83307798	0.14895	-0.72073298	0.92169127	0.025999756	-0.60114328	1.3237439	-0.16355771	-0.57946151	1.3137724	0.19704575	-0.66630966	1.3559097	0.020335453	-0.70583535	1.0250536	-0.21046338	-0.59094615	0.99700114	0.28985414	-0.59696245	0.80912311	-0.25536779	-0.35428441	0.91476503	0.26108684
129	0.512	-0.18652703	0.10121677	-0.10435193	-0.75986123	0.03461144	0.066709886	-0.31429351	0.092560672	-0.12164801	-0.89031221	0.075535685	0.075470868	-0.31358968	0.10892493	-0.037030585	-0.85999816	0.09236891	-0.0082927415	-0.3693425	0.038767091	-0.070372832	-0.9422975	0.060005438	0.0071839152	-0.38809222	0.45822371	-0.11921062	-0.73685974	0.43209684	0.12183868	-0.40014827	0.44671734	0.0035557226	-0.75706734	0.43353313	-0.01060135	-0.57759964	0.80111074	-0.15688078	-0.64477601	0.78423151	0.18847771	-0.517199	0.84056305	-0.098861455	-0.5346236	0.83157904	0.1488399	-0.714028	0.92016776	0.02554847	-0.59476667	1.3219422	-0.16373285	-0.5729982	1.3120949	0.19700887	-0.659924	1.3544294	0.020216653	-0.6998599	1.0234489	-0.21028345	-0.58299959	0.99526205	0.29007039	-0.59204982	0.80725022	-0.25577866	-0.34572871	0.91507129	0.26007967
